<svg width="160" height="32" viewBox="0 0 160 32" fill="none" xmlns="http://www.w3.org/2000/svg">
<g clip-path="url(#clip0_7458_3896)">
<path fill-rule="evenodd" clip-rule="evenodd" d="M0 15.9499C0 12.2697 0 10.4297 0.400518 8.91905C1.50432 4.75587 4.75587 1.50432 8.91905 0.400518C10.4297 0 12.2996 0 16.0395 0C19.7794 0 21.6493 0 23.16 0.400518C27.3231 1.50432 30.5746 4.75587 31.6785 8.91905C32.0789 10.4297 32.0789 12.2697 32.0789 15.9499C32.0789 19.6301 32.0789 21.47 31.6785 22.9807C30.5746 27.1439 27.3231 30.3955 23.16 31.4992C21.6493 31.8998 19.7794 31.8998 16.0395 31.8998C12.2996 31.8998 10.4297 31.8998 8.91905 31.4992C4.75587 30.3955 1.50432 27.1439 0.400518 22.9807C0 21.47 0 19.6301 0 15.9499ZM23.0482 12.9969V7.2227H13.8799L8.05758 12.9969V19.2152H13.8799V12.9969H23.0482ZM23.0477 19.2163H13.866V24.4629H23.0477V19.2163Z" fill="url(#paint0_angular_7458_3896)"/>
<path d="M48.7704 10.2012C51.5779 10.2012 53.769 11.8673 54.157 14.6291L51.6462 14.8573C51.4636 13.3281 50.3225 12.3923 48.7704 12.3923C46.8761 12.3923 45.5066 13.7846 45.5066 16.2724C45.5066 18.7374 46.8988 20.1297 48.7704 20.1297C50.3681 20.1297 51.4408 19.2395 51.669 17.8015L54.1798 18.0299C53.7232 20.7003 51.6235 22.3437 48.7704 22.3437C45.4153 22.3437 42.9045 20.1069 42.9045 16.2724C42.9045 12.4151 45.3925 10.2012 48.7704 10.2012Z" fill="#F0F4F4"/>
<path d="M58.6073 22.1152H56.051V4.38086H58.6073V22.1152Z" fill="#F0F4F4"/>
<path d="M71.9917 17.2311H63.387C63.5239 19.0113 64.7336 20.1297 66.5138 20.1297C67.9974 20.1297 68.9788 19.5135 69.2985 18.4635L71.8776 18.6005C71.4211 20.6775 69.2985 22.3437 66.5824 22.3437C63.1359 22.3437 60.6709 20.0611 60.6709 16.2724C60.6709 12.4608 63.1131 10.2012 66.5138 10.2012C69.869 10.2012 71.9917 12.4151 71.9917 15.9757V17.2311ZM66.491 12.3923C64.7793 12.3923 63.5467 13.3965 63.4098 15.2225H69.4126C69.3441 13.5335 68.3854 12.3923 66.491 12.3923Z" fill="#F0F4F4"/>
<path d="M84.6304 17.2311H76.0257C76.1626 19.0113 77.3724 20.1297 79.1527 20.1297C80.6362 20.1297 81.6177 19.5135 81.9372 18.4635L84.5163 18.6005C84.0599 20.6775 81.9372 22.3437 79.2212 22.3437C75.7746 22.3437 73.3096 20.0611 73.3096 16.2724C73.3096 12.4608 75.7518 10.2012 79.1527 10.2012C82.5078 10.2012 84.6304 12.4151 84.6304 15.9757V17.2311ZM79.1299 12.3923C77.418 12.3923 76.1856 13.3965 76.0485 15.2225H82.0513C81.9829 13.5335 81.0243 12.3923 79.1299 12.3923Z" fill="#F0F4F4"/>
<path d="M91.7104 22.1155H89.6562L84.5894 10.4067H87.3966L90.6833 18.2354L93.9243 10.4067H96.7546L91.7104 22.1155Z" fill="#F0F4F4"/>
<path d="M99.1472 4.74609C100.037 4.74609 100.768 5.45365 100.768 6.34378C100.768 7.23392 100.037 7.94147 99.1472 7.94147C98.2571 7.94147 97.5496 7.23392 97.5496 6.34378C97.5496 5.45365 98.2799 4.74609 99.1472 4.74609ZM100.425 22.1152H97.8691V10.4065H100.425V22.1152Z" fill="#F0F4F4"/>
<path d="M108.606 10.2012C112.075 10.2012 114.7 12.552 114.7 16.2724C114.7 19.9698 112.075 22.3437 108.606 22.3437C105.114 22.3437 102.489 19.9698 102.489 16.2724C102.489 12.552 105.114 10.2012 108.606 10.2012ZM108.606 12.3923C106.575 12.3923 105.091 13.8302 105.091 16.2724C105.091 18.6918 106.575 20.1297 108.606 20.1297C110.615 20.1297 112.121 18.6918 112.121 16.2724C112.121 13.8302 110.615 12.3923 108.606 12.3923Z" fill="#F0F4F4"/>
<path d="M127.28 16.1584L131.183 22.1155H128.125L125.409 17.9159L122.67 22.1155H119.68L123.469 16.1128L119.771 10.4067H122.807L125.409 14.4238L127.965 10.4067H131L127.28 16.1584Z" fill="#F0F4F4"/>
</g>
<defs>
<radialGradient id="paint0_angular_7458_3896" cx="0" cy="0" r="1" gradientUnits="userSpaceOnUse" gradientTransform="translate(16.0395 15.9499) scale(16.0395 15.9499)">
<stop stop-color="#B6D0F7"/>
<stop offset="0.2" stop-color="#C5C1F9"/>
<stop offset="0.4" stop-color="#FAFCFE"/>
<stop offset="0.6" stop-color="#BFF6F9"/>
<stop offset="0.8" stop-color="#CCBAE4"/>
<stop offset="1" stop-color="#B6D0F7"/>
</radialGradient>
<clipPath id="clip0_7458_3896">
<rect width="131.183" height="32" fill="white"/>
</clipPath>
</defs>
</svg>
